<svg xmlns="http://www.w3.org/2000/svg" viewBox="0 0 163.19 163.26"><defs><style>.cls-1{fill:#f5d83e;}</style></defs><g id="Capa_2" data-name="Capa 2"><g id="Capa_1-2" data-name="Capa 1"><path class="cls-1" d="M129.28,25.47H105.46V3.39h-63V122.48H88.33v3.31H39.13V0h1.38Q73.73,0,107,0a2.24,2.24,0,0,1,1.41.57q11.72,10.82,23.39,21.69a2,2,0,0,1,.85,1.63c-.05,5,0,9.92,0,14.89q0,26.55,0,53.1,0,16.34,0,32.68v1.18h-16.9v-3.25H128c1.46,0,1.3.16,1.3-1.34q0-21.32,0-42.63,0-24.78,0-49.54Z"/><path class="cls-1" d="M103.66,112.37c0,2.1,0,4.3,0,6.51,0,.19.3.47.51.53a9.15,9.15,0,0,1,6.25,8.75q0,13.05,0,26.12a9.15,9.15,0,0,1-2.94,6.75,8,8,0,0,1-12.75-2.29,9.89,9.89,0,0,1-1.2-4.73q0-12.81,0-25.61a9.32,9.32,0,0,1,6.27-9,.91.91,0,0,0,.51-.69c0-2,0-3.92,0-5.88,0-.49-.14-.66-.66-.73-8-1.16-13.67-5.48-16.72-13a20.38,20.38,0,1,1,26.1,11.84C107.37,111.54,105.58,111.87,103.66,112.37ZM88.38,91.7a13.64,13.64,0,1,0,14-13.47A13.64,13.64,0,0,0,88.38,91.7Zm15.35,58h-3.41v3.42c1,0,2,0,2.93,0a.69.69,0,0,0,.46-.5C103.76,151.69,103.73,150.76,103.73,149.72Zm0-10.21h-3.43c0,1,0,2,0,2.92a.65.65,0,0,0,.41.48c1,0,2,0,3,0Zm-3.39-6.79c1,0,2,0,2.95,0a.65.65,0,0,0,.47-.41c0-1,0-2,0-3h-3.44Z"/><path class="cls-1" d="M155.75,44.45c10.49,12.48,10.15,32.61-2.66,45.07-2-2-3.93-4-5.91-6-3.51-3.52-7-7-10.54-10.52a1.8,1.8,0,0,1-.58-1.41c0-2.3,0-4.6,0-6.9a1.63,1.63,0,0,1,.39-1Q146,54.09,155.6,44.53A.44.44,0,0,1,155.75,44.45Z"/><path class="cls-1" d="M79.89,25.44A15.28,15.28,0,1,1,64.61,10.21,15.26,15.26,0,0,1,79.89,25.44Zm-16.78,6.9,10-10.43-3-2.53-6.89,7.14-4.31-4L56,25Z"/><path class="cls-1" d="M64.59,51.05A15.29,15.29,0,1,1,49.34,66.39,15.27,15.27,0,0,1,64.59,51.05ZM56,65.76c2.41,2.51,4.74,4.93,7.11,7.41l10-10.44-3-2.54-6.89,7.15-4.4-4.05Z"/><path class="cls-1" d="M0,74.76v-10H35.57v10Z"/><path class="cls-1" d="M10.21,54.35v-10H35.57v10Z"/><path class="cls-1" d="M153.45,41.69c-5.81,5.82-11.53,11.55-17.32,17.33V32.18A33.84,33.84,0,0,1,153.45,41.69Z"/><path class="cls-1" d="M17,85.12H35.57v10H17Z"/><path class="cls-1" d="M136.12,77.57l14.31,14.31c-2.46,2.64-11,6.73-14.31,6.78Z"/><path class="cls-1" d="M122.34,42.6v3.23H85.09V42.6Z"/><path class="cls-1" d="M85.07,35.61V32.38h37.25v3.23Z"/><path class="cls-1" d="M122.35,52.81V56H85.07V52.81Z"/><path class="cls-1" d="M84.9,110.67v3.2H49.35v-3.2Z"/><path class="cls-1" d="M76.42,100.46v3.22H49.34v-3.22Z"/><path class="cls-1" d="M35.58,33.93H27.24v-10h8.34Z"/><path class="cls-1" d="M74.69,93.48H49.35V90.26H74.69Z"/><path class="cls-1" d="M100.21,25.41H86.78V22.18h13.43Z"/><path class="cls-1" d="M105.55,88.09c-2.42-1.81-4.41-1.8-7.17,0l-2.25-2.28c2.63-3.25,9-3.25,11.73,0Z"/></g></g></svg>