<svg xmlns="http://www.w3.org/2000/svg" viewBox="0 0 128.4 126.44"><defs><style>.cls-1{fill:#f5d83e;}</style></defs><g id="Capa_2" data-name="Capa 2"><g id="Capa_1-2" data-name="Capa 1"><path class="cls-1" d="M97.48,0a20.55,20.55,0,0,1,3.33,1.41,7.31,7.31,0,0,1,3.5,6.42c0,3.65,0,7.31,0,11a.94.94,0,0,1-.13.6c-1.23,1.24-2.49,2.46-3.86,3.8V17.83H4v100.3c0,2.74,1.58,4.34,4.37,4.34H96.11a4,4,0,0,0,4.21-4.33V72.22c0-2.65,0-5.29,0-7.94a1.54,1.54,0,0,1,.41-1c1.11-1.16,2.27-2.27,3.51-3.5,0,.29.06.47.06.64q0,29.08,0,58.18a7.88,7.88,0,0,1-6,7.59c-.27.07-.53.16-.8.24H6.81c-.24-.08-.48-.17-.73-.23a7.94,7.94,0,0,1-5.73-5.33c-.13-.38-.23-.77-.35-1.15V6.84c.05-.16.1-.33.14-.49a7.89,7.89,0,0,1,5-5.82A18.58,18.58,0,0,1,6.94,0ZM4,13.77h96.25a2.81,2.81,0,0,0,0-.36c0-1.78,0-3.57,0-5.35a4.48,4.48,0,0,0-.15-1.15C99.66,5,98.12,4,95.87,4H9.16C8.79,4,8.41,4,8,4A3.92,3.92,0,0,0,4,8c0,1.39,0,2.79,0,4.19Z"/><path class="cls-1" d="M128.4,30.19a16.29,16.29,0,0,1-1.18,1.43Q100.6,57.86,74,84.06a3.93,3.93,0,0,1-1.35.86c-5.84,2-11.7,3.86-17.55,5.78a2,2,0,0,1-2.66-.87A2.2,2.2,0,0,1,52.33,88Q54,82.53,55.62,77c.51-1.71,1-3.43,1.54-5.12a3.91,3.91,0,0,1,.89-1.46q27.24-26.86,54.5-53.69c1.31-1.29,2.3-1.3,3.63,0q5.58,5.49,11.15,11A16.48,16.48,0,0,1,128.4,29Zm-21-2.59Q85.73,48.92,64.19,70.11l9,8.88,43.17-42.5Zm3-3c3,3,6.07,6,9.07,9l3.94-3.85-9-8.95ZM69.79,81.68,61,73l-3.83,12.8Z"/><path class="cls-1" d="M68.26,32.65V52.36h2.27l.09.17-1.94,1.86c-.47.46-1,.9-1.39,1.37a.59.59,0,0,1-.8.15,3.69,3.69,0,0,1-2.27-3.36q-.06-10.06,0-20.12A3.86,3.86,0,0,1,68,28.66q10.22,0,20.43,0A3.72,3.72,0,0,1,91.9,31a.63.63,0,0,1,0,.57A46.23,46.23,0,0,1,88.3,34.9V32.65Z"/><path class="cls-1" d="M35.11,40.5H56a2,2,0,0,1,2.18,2.11,1.93,1.93,0,0,1-1.54,1.78,4,4,0,0,1-.78.07H14.35c-1.42,0-2.31-.78-2.31-2a1.94,1.94,0,0,1,1.92-2H35.11Z"/><path class="cls-1" d="M35.11,48.39H55.93a2.11,2.11,0,0,1,2,1,2,2,0,0,1-1.53,3,4.51,4.51,0,0,1-.52,0H14.35c-1.68,0-2.71-1.26-2.18-2.67a2,2,0,0,1,2.05-1.3H35.11Z"/><path class="cls-1" d="M35.12,32.6H55.48a6.62,6.62,0,0,1,1.18,0,2,2,0,0,1-.28,3.87c-.24,0-.48,0-.72,0h-41c-.26,0-.52,0-.78,0a1.94,1.94,0,0,1-1.85-2,1.91,1.91,0,0,1,1.87-1.94c1.61,0,3.23,0,4.84,0Z"/><path class="cls-1" d="M35.12,108.65H14.23a2,2,0,0,1-2.18-2.15,1.92,1.92,0,0,1,1.77-1.77c.35,0,.7,0,1,0H55.92a2,2,0,0,1,2.23,1.57,1.93,1.93,0,0,1-1.25,2.23,3.18,3.18,0,0,1-1,.14Z"/><path class="cls-1" d="M20.11,96.8h-4a3.94,3.94,0,0,1-4.08-4q0-3.9,0-7.8a3.91,3.91,0,0,1,4-3.94q4,0,7.93,0a3.9,3.9,0,0,1,4.07,4c0,2.6,0,5.2,0,7.8a3.9,3.9,0,0,1-4,4C22.73,96.81,21.42,96.8,20.11,96.8ZM24.05,85H16.1V92.8h8Z"/><path class="cls-1" d="M57.59,65.34l-2,1.94a7.2,7.2,0,0,0-1.1,1.18,1.47,1.47,0,0,1-1.45.71q-19.18,0-38.37,0a5.15,5.15,0,0,1-1-.05A2,2,0,0,1,12,67a2,2,0,0,1,1.8-1.83,4.66,4.66,0,0,1,.65,0h43Z"/><path class="cls-1" d="M78.87,84.78l3.75-3.65a.37.37,0,0,1,.22-.12c3.14-.38,5.43,1.14,5.45,4.18,0,2.47,0,5,0,7.42A4,4,0,0,1,84,96.8H76.43a4,4,0,0,1-4.22-4.18c0-1,0-2,0-3a.75.75,0,0,1,.37-.54c1.19-.51,2.4-1,3.63-1.45v5.15h8V85H79Z"/><path class="cls-1" d="M28.55,77H14.15A2,2,0,0,1,12.27,76a1.71,1.71,0,0,1,.16-2,3.19,3.19,0,0,1,1.41-.8,5.76,5.76,0,0,1,1.5,0h27c.29,0,.57,0,.85,0a2,2,0,0,1,1.92,2,1.94,1.94,0,0,1-2,2H28.55Z"/><path class="cls-1" d="M28.64,112.61H43.1a2,2,0,0,1,2,1.47A1.94,1.94,0,0,1,44,116.35a2.38,2.38,0,0,1-1,.2q-14.46,0-28.92,0A2,2,0,0,1,12.08,115a1.93,1.93,0,0,1,1.08-2.2,3.08,3.08,0,0,1,1.21-.2Z"/><path class="cls-1" d="M46.16,85v7.91c.9,0,1.79,0,2.68,0a1.87,1.87,0,0,1,1.39.49A5.87,5.87,0,0,0,56,94.54c.65-.19,1.28-.41,1.93-.63a3.68,3.68,0,0,1-3.68,2.88c-2,0-4,0-6,0-.75,0-1.49,0-2.23,0a3.94,3.94,0,0,1-3.91-3.89c0-2.64,0-5.29,0-7.93a3.92,3.92,0,0,1,4.09-4h4c-.38,1.29-.72,2.5-1.11,3.7,0,.12-.34.23-.52.24C47.82,85,47,85,46.16,85Z"/></g></g></svg>