<svg xmlns="http://www.w3.org/2000/svg" viewBox="0 0 128.77 130.25"><defs><style>.cls-1{fill:#f5d83e;}</style></defs><g id="Capa_2" data-name="Capa 2"><g id="Capa_1-2" data-name="Capa 1"><path class="cls-1" d="M114.4,68.59V65H103.14V59.72h11.51c-.38-2.93-.56-5.63-1.12-8.26a52.77,52.77,0,0,0-11-22.9,2.07,2.07,0,0,0-2.78-.78C96.62,29,93.41,30,90.41,31.1q2.52,8.22,5.1,16.57l-5.93,1.19c-.49-2.27-.89-4.69-1.54-7-.77-2.77-1.82-5.45-2.61-8.2-.35-1.21-1-1.29-2-1.17-4.54.55-9.08,1-13.61,1.6a2.76,2.76,0,0,0-1.33.86c-1.19,1.15-2.35,2.34-3.5,3.54-.32.34-.79.76-.79,1.15,0,6.59,0,13.19,0,20h21v5.28H64.25V91l14,1.31a50.49,50.49,0,0,1-4,4.42,3.84,3.84,0,0,1-2.5.4c-2.45-.17-4.9-.48-7.49-.75v18c4.13.46,5.37-.1,9.16-4.18L81.3,121a57.49,57.49,0,0,1-15.65,3c-18.25.84-34.07-5-47.1-17.75a61.65,61.65,0,0,1-8.8-77.36C19.8,13.15,34.26,3.79,52.64.78c28.18-4.6,56.26,11.51,66.91,38a62.86,62.86,0,0,1,3.74,33.44c-.1.65-.7,1.22-1.06,1.83a6.76,6.76,0,0,1-1.47-1.27A9.78,9.78,0,0,0,114.4,68.59ZM58.85,90.69V65.27c-.18-.14-.23-.21-.28-.21Q48.48,65,38.38,65a1.51,1.51,0,0,0-1,.45c-1.06,1.12-2.11,2.25-3.08,3.46a2,2,0,0,0-.34,1.4,79.51,79.51,0,0,0,5.68,21.26,1.82,1.82,0,0,0,1.42.88C46.92,91.89,52.76,91.29,58.85,90.69Zm-.05-31.1A9,9,0,0,0,59,58.45c0-6.15,0-12.29-.08-18.43a3,3,0,0,0-1-1.63c-1-1.08-2.33-2-3.08-3.17a2.88,2.88,0,0,0-2.43-1.52c-4.08-.49-8.15-1.09-12.23-1.53a2.12,2.12,0,0,0-1.71.89A69.25,69.25,0,0,0,33.87,54c-.17,2.54,3.07,2.83,3.47,5.05,0,.23.42.43.68.57a1.61,1.61,0,0,0,.58,0Zm-49.21,0c4.33,0,8.44,0,12.55-.05.48,0,1-.58,1.42-1,1.11-1.06,2.21-2.14,3.25-3.26A4.09,4.09,0,0,0,28,53.56c.61-3.2.89-6.47,1.67-9.63,1.09-4.4,2.52-8.72,3.81-13.09L22.89,27.08A52.54,52.54,0,0,0,9.59,59.59Zm24.53,33.8a2.34,2.34,0,0,0-.11-.47,73.92,73.92,0,0,1-5.44-18.71c-.39-2.73-.71-5.19-3.59-6.45a2.7,2.7,0,0,1-1.21-1.49c-.44-1.26-1.31-1.39-2.45-1.36-2.75,0-5.49,0-8.23,0H9.62c.13,1.69.21,3,.34,4.28.08.71.23,1.41.36,2.11A52.13,52.13,0,0,0,21.92,96a1.92,1.92,0,0,0,1.53.65C27,95.6,30.54,94.48,34.12,93.39ZM64.19,9.81c0,4.16.07,8.2,0,12.24,0,1.44.19,2.35,1.59,3.09,1,.51,1.59,1.67,2.45,2.44.47.42,1.14,1,1.66.91,4.07-.41,8.13-.94,12.37-1.46-.34-.71-.54-1.18-.79-1.63A60,60,0,0,0,70.24,11.63,6.65,6.65,0,0,0,64.19,9.81ZM40.85,26.88c4.39.61,8.11,1.18,11.85,1.63,3,.37,3.06-3.65,5.66-4,.24,0,.56-.57.56-.88,0-4.61,0-9.23,0-13.85-2.93-.14-5.35.31-7.15,2.68C50.57,14,49,15.34,47.76,17,45.45,20.06,43.32,23.3,40.85,26.88Zm1.61,70.46a85.69,85.69,0,0,0,9.76,14.57c1.79,2.25,4,2.63,6.61,2.53V95.9ZM78.32,12.11C81.19,16.37,84.09,20.69,87,25c.25.37.86.82,1.18.75,3-.7,6-1.5,9.36-2.38A53.41,53.41,0,0,0,78.32,12.11ZM44.46,111.59c-2.6-4.3-5-8.3-7.47-12.28a1.29,1.29,0,0,0-1-.59c-3,.6-6.05,1.29-9.48,2A52.59,52.59,0,0,0,44.46,111.59ZM26.66,23.32l9.12,2.49L44.49,12.6A52.33,52.33,0,0,0,26.66,23.32Zm34.75,3.34a5.14,5.14,0,0,0-4.73,5.06,4.86,4.86,0,1,0,4.73-5.06ZM30.51,57.47a4.71,4.71,0,0,0-5,4.41A4.77,4.77,0,0,0,30,67a4.87,4.87,0,0,0,5.08-4.36A4.69,4.69,0,0,0,30.51,57.47Z"/><path class="cls-1" d="M122.76,78.15c3.8-.28,5.74,1.49,5.76,5,0,3.73,0,7.45,0,11.18.07,9.8.18,19.61.24,29.41,0,4.82-1.69,6.54-6.41,6.53-8.83,0-17.66,0-26.49,0a5.24,5.24,0,0,1-4.65-2.34q-7.35-10.27-14.83-20.45c-1.81-2.46-1.77-5.06.24-7.27l8.12-8.92c0,4.33,0,8.18,0,12,0,2,.7,3,2.15,3.07s2.34-1,2.35-3q0-11.67,0-23.35c0-7.66,0-15.31,0-23a4.86,4.86,0,0,1,7.44-4.36c1.85,1.07,2.33,2.84,2.33,4.85Q99,74,99,90.36v2.53c2.42-.53,3.28-1.48,3.29-3.56,0-5.24,0-10.47,0-15.7V71.54c3.59-.51,5.8,1.31,5.82,4.7,0,5.88,0,11.77,0,17.66a4.36,4.36,0,0,0,4.25-4.65c0-4.84,0-9.68,0-14.52V72.84c3.35-.28,5.51,1.58,5.54,4.71,0,5.62,0,11.25,0,16.87a9,9,0,0,0,.37,1.82,7.06,7.06,0,0,0,2-.48,4.94,4.94,0,0,0,2.46-4.6c0-3.66,0-7.33,0-11Z"/></g></g></svg>