<svg xmlns="http://www.w3.org/2000/svg" viewBox="0 0 143.6 136.39"><defs><style>.cls-1{fill:#f5d83e;}</style></defs><g id="Capa_2" data-name="Capa 2"><g id="Capa_1-2" data-name="Capa 1"><path class="cls-1" d="M120.13,68.23V61.14H73.24v7A22,22,0,0,1,89.49,77a21.2,21.2,0,0,1,4.29,15.06,22.07,22.07,0,1,1-23.4-24v-7H23.49v7.39c7.37.73,13.23,4.07,17.25,10.37a21.11,21.11,0,0,1,3.11,15.14A22.06,22.06,0,0,1,0,91.29,22.25,22.25,0,0,1,20.69,68.55V58.42H70.35V53.87a26.77,26.77,0,0,1-20.6-11.51A26,26,0,0,1,45,24.26,27,27,0,0,1,73,0C86.14.5,97.63,11.44,98.65,24.61A27.08,27.08,0,0,1,73.23,53.89v4.47h49.64V68.2a22.06,22.06,0,0,1,17,9.88,21.19,21.19,0,0,1,3.57,14.48,22.11,22.11,0,0,1-22.41,19.77c-10.77-.22-20.22-8.65-21.41-19.22a22.73,22.73,0,0,1,.67-8.92,21.52,21.52,0,0,1,4.17-7.91,21.83,21.83,0,0,1,7-5.63A22.5,22.5,0,0,1,120.13,68.23ZM86.33,46.16c6.47-4.33,11.63-14.33,9-24.87a24.23,24.23,0,0,0-47.35,1c-2.1,10.25,3.11,19.84,9.26,23.85.37-2.13.76-4.22,1.09-6.31A3,3,0,0,1,60.9,37c1.93-.5,3.88-1,5.8-1.52a10.8,10.8,0,0,0,2-1.06,20,20,0,0,0-1.26-1.63C67,32.35,66.48,32,66,31.61s-1.15-.75-1.37-1.28a26.41,26.41,0,0,1-1.07-3.65c-.08-.31.06-.7-.06-1-.55-1.24-.47-2.32.46-3a16.21,16.21,0,0,1-.63-2.4,23.47,23.47,0,0,1-.3-5.14c.35-3,3-5.05,6.26-5.29.29,0,.57-.06.86-.09l.26-.9,1,.38.46-1.47,1.57.72L74,6.89c2.85,2,5.71,3.82,6.47,7.46a14.3,14.3,0,0,1-.91,8.46,2.59,2.59,0,0,1,.34,2.64,12.85,12.85,0,0,0-.49,3.07,3.42,3.42,0,0,1-1.35,2.73c-1.09.92-2,2-3.21,3.25a14.64,14.64,0,0,0,2.08,1c1.92.55,3.87,1,5.8,1.52a2.93,2.93,0,0,1,2.5,2.84C85.56,41.94,86,44,86.33,46.16Zm-2.1,58.77A19.15,19.15,0,0,0,90,83.66a19.36,19.36,0,0,0-37.41,3.78c-1.11,7.16,2.41,14.4,6.68,17.3,0,0,0,0,0-.08l0-2.8a2.48,2.48,0,0,1,2-2.62c1.93-.54,3.88-1,5.79-1.57a10.44,10.44,0,0,0,1.86-1c-1.29-1.1-2.39-2-3.41-2.92a3.21,3.21,0,0,1-.79-1.33,11,11,0,0,1-.43-2.27c-.17-2.18-.38-4.37-.36-6.56A5.87,5.87,0,0,1,66.2,78.9a9.48,9.48,0,0,1,5.66-2c2.92-.07,5.76,1.1,6.88,4.12a13.84,13.84,0,0,1,.6,8,16.3,16.3,0,0,0-.49,2.76,2.73,2.73,0,0,1-1,2.24c-1,.81-2,1.7-3.26,2.74a14.31,14.31,0,0,0,2.11,1.06c1.88.55,3.8,1,5.69,1.52a2.45,2.45,0,0,1,1.89,2.51C84.24,102.76,84.23,103.75,84.23,104.93Zm49,.64c5.34-3.6,9.37-11.78,7.08-20.26s-10.42-14.74-19-14.42A19.43,19.43,0,0,0,102.51,86.6c-1.62,8.45,2.69,15.94,7.36,18.92v-1.83a2.46,2.46,0,0,1,2.21-2.83c1.58-.42,3.17-.81,4.74-1.24.45-.12.88-.34,1.43-.55-.91-.51-2.07.4-2.47-.87-.75,1.28-1.91.3-2.88.73,0-.45,0-.71,0-1,.25-5,.49-10.07.75-15.1a2.73,2.73,0,0,1,.28-1,8.44,8.44,0,0,1,13.36-2.51,6.19,6.19,0,0,1,2.22,4.51c.08,4.24.36,8.47.56,12.7,0,.76.07,1.51.11,2.37H125a2,2,0,0,0,1.06.69c1.68.45,3.36.87,5,1.31a2.35,2.35,0,0,1,2.06,2.54C133.19,104.1,133.18,104.77,133.18,105.57Zm-98.87-.11a19.06,19.06,0,0,0,6-21.21,19.39,19.39,0,0,0-37.64,5c-.48,5.83,3.45,14.86,7.13,16.06,0-2.11,0-4.21,0-6.32a2.29,2.29,0,0,1,2-2.62c1.91-.46,3.84-.86,5.74-1.36a9.46,9.46,0,0,0,1.79-.91c-1.15-1-2.08-1.71-3-2.52a2.39,2.39,0,0,1-.76-1.12c-.33-1.47-.58-3-.81-4.45-.06-.41-.12-1,.1-1.24.8-.7.5-1.46.37-2.26a6.18,6.18,0,0,1,3.52-7,7.83,7.83,0,0,1,5.75-.34,5.58,5.58,0,0,1,4.21,5,20.12,20.12,0,0,1-.22,3.08c0,.34-.05.84.14,1,.77.61.59,1.33.45,2.09-.24,1.28-.4,2.58-.71,3.84a3,3,0,0,1-.83,1.4c-.88.84-1.85,1.59-3,2.55A11.34,11.34,0,0,0,26.5,95c1.9.5,3.83.91,5.74,1.37A2.33,2.33,0,0,1,34.31,99C34.32,101.11,34.31,103.21,34.31,105.46Z"/><path class="cls-1" d="M83.9,136.36c-3.8,0-6.09-2.45-6.08-6.5s2.32-6.44,6-6.43S90,125.9,90,130,87.66,136.36,83.9,136.36Zm-3.56-6.47a18.79,18.79,0,0,0,.48,2.13A3.07,3.07,0,0,0,84,134.17,3.11,3.11,0,0,0,87,131.94a6.52,6.52,0,0,0,0-4.12,3.32,3.32,0,0,0-6.24-.1A20.27,20.27,0,0,0,80.34,129.89Z"/><path class="cls-1" d="M69.25,125.73v2.75h6.19v2.15H69.3V134h6.87v2.14H66.73V123.73h9.21v2Z"/><path class="cls-1" d="M62.13,131.57l2.35.74a4.66,4.66,0,0,1-2.4,3.42,5.63,5.63,0,0,1-8.17-3.46,8.28,8.28,0,0,1,.28-5.49,5.8,5.8,0,0,1,8.36-2.53,4.3,4.3,0,0,1,1.89,2.83l-2.39.61a2.87,2.87,0,0,0-5.5-.08,7.55,7.55,0,0,0,0,4.34,2.71,2.71,0,0,0,2.61,2.22,2.57,2.57,0,0,0,2.76-2C61.94,132,62,131.82,62.13,131.57Z"/></g></g></svg>